<?xml version="1.0" encoding="utf-8"?>
<!-- Generator: Adobe Illustrator 27.0.0, SVG Export Plug-In . SVG Version: 6.00 Build 0)  -->
<svg version="1.1" id="Ebene_1" xmlns="http://www.w3.org/2000/svg" xmlns:xlink="http://www.w3.org/1999/xlink" x="0px" y="0px"
	 viewBox="0 0 152.4 130.1" style="enable-background:new 0 0 152.4 130.1;" xml:space="preserve">
<style type="text/css">
	.st0{enable-background:new    ;}
	.st1{fill:none;stroke:#EF9D5F;}
</style>
<g class="st0">
	<path class="st1" d="M12.4,129.4L0.7,108c11.5-6.7,20.2-14.2,26-22.5c5.9-8.3,8.8-18.4,8.8-30.5c-0.8,0.3-2.1,0.4-3.8,0.4
		c-7.3,0-13.7-2.3-19.1-6.9s-8.2-11-8.2-19.1c0-9,2.6-16,7.8-21.2c5.2-5.2,11.7-7.8,19.5-7.8c10.6,0,18.8,4.1,24.6,12.2
		c5.7,8.1,8.6,19.6,8.6,34.4C64.9,83.8,47.4,111.2,12.4,129.4z M99.4,129.4L87.6,108c11.5-6.7,20.2-14.2,26-22.5
		c5.9-8.3,8.8-18.4,8.8-30.5c-0.8,0.3-2.1,0.4-3.8,0.4c-7.3,0-13.7-2.3-19.1-6.9s-8.2-11-8.2-19.1c0-9,2.6-16,7.8-21.2
		c5.2-5.2,11.7-7.8,19.5-7.8c10.6,0,18.8,4.1,24.6,12.2c5.7,8.1,8.6,19.6,8.6,34.4C151.9,83.8,134.4,111.2,99.4,129.4z"/>
</g>
</svg>
